Coordinates
version=1
nRows=8
nColumns=46
inDegrees=yes

Units are S.I. units (second, meters, Newtons, ...)
Angles are in degrees.

endheader
time	pelvis_tilt	pelvis_list	pelvis_rotation	pelvis_tx	pelvis_ty	pelvis_tz	bb_angle	bb_tx	bb_ty	bb_tz	hip_flexion_r	hip_adduction_r	hip_rotation_r	knee_angle_r	knee_angle_r_beta	ankle_angle_r	subtalar_angle_r	mtp_angle_r	crank_angle_r	hip_flexion_l	hip_adduction_l	hip_rotation_l	knee_angle_l	knee_angle_l_beta	ankle_angle_l	subtalar_angle_l	mtp_angle_l	crank_angle_l	lumbar_extension	lumbar_bending	lumbar_rotation	arm_flex_r	arm_add_r	arm_rot_r	elbow_flex_r	pro_sup_r	wrist_flex_r	wrist_dev_r	arm_flex_l	arm_add_l	arm_rot_l	elbow_flex_l	pro_sup_l	wrist_flex_l	wrist_dev_l
      0.00000000	    -12.31756383	      1.27398052	      2.89774098	      0.10408003	      1.14736117	     -0.25369639	      0.00000000	      0.50000000	      0.00000000	      0.25000000	     51.64274605	     -6.65434850	     -2.05080114	     74.54287111	      1.30101853	      9.04191631	     -7.49600591	      0.00000000	      0.00000000	     77.48319099	     -5.58452279	     -1.81876260	     83.77380322	      1.46212869	     17.40213435	      1.75705191	      0.00000000	      0.00000000	    -53.88353702	      0.63107518	      1.43682705	     89.78760437	     -2.52211609	     24.54378673	     29.44373749	     23.19102664	      0.00000000	      0.00000000	     89.75249875	      3.03198516	     24.58461572	     27.91149638	     22.85006051	      0.00000000	      0.00000000
      0.00500000	    -12.32663797	      1.37068436	      2.86173106	      0.10382210	      1.14726746	     -0.25361243	      0.00000000	      0.50000000	      0.00000000	      0.25000000	     51.69241302	     -6.73544354	     -2.01941861	     74.53977226	      1.30096445	      9.00221307	     -7.48661833	      0.00000000	      0.00000000	     77.50299262	     -5.57607747	     -1.91288817	     83.79059135	      1.46242170	     17.33824031	      1.67774129	      0.00000000	      0.00000000	    -53.86063721	      0.52352484	      1.36678974	     89.78768648	     -2.50965488	     24.78454749	     30.20832804	     19.02151860	      0.00000000	      0.00000000	     89.75251976	      3.06573208	     24.62402725	     28.77802236	     18.34676097	      0.00000000	      0.00000000
      0.01000000	    -12.25121662	      1.37095648	      2.88407763	      0.10375675	      1.14743687	     -0.25356287	      0.00000000	      0.50000000	      0.00000000	      0.25000000	     51.59173430	     -6.74533102	     -2.04412429	     74.49455740	      1.30017530	      8.98073971	     -7.48329721	      0.00000000	      0.00000000	     77.45052599	     -5.57539072	     -1.90587657	     83.83095360	      1.46312616	     17.37826723	      1.84996136	      0.00000000	      0.00000000	    -53.98613432	      0.54219852	      1.39705855	     89.78461468	     -1.91536704	     21.88740471	     29.49061926	     24.35117954	      0.00000000	      0.00000000	     89.75216051	      3.65208753	     21.92874029	     27.91936101	     23.92175084	      0.00000000	      0.00000000
      0.01500000	    -12.13767996	      1.33782381	      2.89168252	      0.10368379	      1.14769518	     -0.25353385	      0.00000000	      0.50000000	      0.00000000	      0.25000000	     51.44307364	     -6.69270870	     -2.03753355	     74.43559319	      1.29914618	      8.95328714	     -7.52604569	      0.00000000	      0.00000000	     77.35391594	     -5.62847285	     -1.85307765	     83.87783494	      1.46394439	     17.42415051	      2.01614760	      0.00000000	      0.00000000	    -54.08971276	      0.54923458	      1.39952962	     89.78594924	     -1.95646591	     22.07233501	     29.35689435	     24.76180674	      0.00000000	      0.00000000	     89.75268865	      3.60404415	     22.05791217	     27.90389714	     24.35070690	      0.00000000	      0.00000000
      0.02000000	    -12.18170232	      1.34578195	      2.89848549	      0.10359361	      1.14741094	     -0.25340926	      0.00000000	      0.50000000	      0.00000000	      0.25000000	     51.49672613	     -6.69997109	     -2.02169702	     74.40340957	      1.29858447	      8.87451504	     -7.52211972	      0.00000000	      0.00000000	     77.43921123	     -5.61452203	     -1.83045838	     83.92841360	      1.46482715	     17.40034085	      1.92847626	      0.00000000	      0.00000000	    -53.95611304	      0.51633472	      1.32649844	     89.78985496	     -2.47646701	     25.00401413	     29.12289298	     23.55802083	      0.00000000	      0.00000000	     89.75506302	      3.05247861	     24.54582582	     27.89779661	     23.09176505	      0.00000000	      0.00000000
      0.02500000	    -11.96519256	      1.38452176	      2.93331058	      0.10354725	      1.14808369	     -0.25335737	      0.00000000	      0.50000000	      0.00000000	      0.25000000	     51.20950693	     -6.72223137	     -2.02663409	     74.29928833	      1.29676721	      8.87656564	     -7.56670312	      0.00000000	      0.00000000	     77.19159254	     -5.60288590	     -1.89337736	     83.91567233	      1.46460478	     17.51619554	      2.03351768	      0.00000000	      0.00000000	    -54.26593107	      0.49788086	      1.31393742	     89.78800702	     -2.41045692	     24.14227450	     29.38419803	     24.38146149	      0.00000000	      0.00000000	     89.75621660	      3.25055843	     23.71439765	     28.07685555	     23.91587405	      0.00000000	      0.00000000
      0.03000000	    -12.08698256	      1.34133304	      2.93988619	      0.10337915	      1.14762190	     -0.25333384	      0.00000000	      0.50000000	      0.00000000	      0.25000000	     51.37644591	     -6.68530696	     -2.04339707	     74.32094893	      1.29714526	      8.82309684	     -7.58555574	      0.00000000	      0.00000000	     77.41882316	     -5.61490082	     -1.83774955	     84.00922594	      1.46623759	     17.38474268	      2.00192850	      0.00000000	      0.00000000	    -54.02779347	      0.50320383	      1.35041195	     89.79028085	     -2.61222402	     25.37029144	     29.11872352	     23.53150149	      0.00000000	      0.00000000	     89.75776697	      3.13184031	     24.80374097	     27.87181744	     23.03844741	      0.00000000	      0.00000000
      0.03500000	    -12.05270221	      1.37062614	      2.95676572	      0.10318981	      1.14766884	     -0.25330341	      0.00000000	      0.50000000	      0.00000000	      0.25000000	     51.34662376	     -6.72090461	     -2.04230180	     74.28680684	      1.29654937	      8.73987367	     -7.59546476	      0.00000000	      0.00000000	     77.41149118	     -5.58850273	     -1.85625019	     84.04133038	      1.46679792	     17.38642372	      1.94585634	      0.00000000	      0.00000000	    -54.06711088	      0.47059311	      1.30796215	     89.78931843	     -2.53523207	     25.28191833	     29.67285305	     20.55695843	      0.00000000	      0.00000000	     89.75796862	      3.21003581	     24.74563325	     28.54734095	     19.93118142	      0.00000000	      0.00000000
